<svg width="363" height="564" viewBox="0 0 363 564" fill="none" xmlns="http://www.w3.org/2000/svg">
<path d="M181.5 563.5C131.608 563.5 86.3698 532.079 53.5806 481.134C20.7948 430.194 0.500015 359.791 0.500018 282C0.500022 204.209 20.7948 133.806 53.5806 82.8665C86.3698 31.9213 131.608 0.49999 181.5 0.499992C231.392 0.499994 276.63 31.9213 309.419 82.8665C342.205 133.806 362.5 204.209 362.5 282C362.5 359.791 342.205 430.194 309.419 481.134C276.63 532.079 231.392 563.5 181.5 563.5Z" stroke="#BA9765"/>
<path d="M181.5 563.5C131.608 563.5 86.3698 532.079 53.5806 481.134C20.7948 430.194 0.500015 359.791 0.500018 282C0.500022 204.209 20.7948 133.806 53.5806 82.8665C86.3698 31.9213 131.608 0.49999 181.5 0.499992C231.392 0.499994 276.63 31.9213 309.419 82.8665C342.205 133.806 362.5 204.209 362.5 282C362.5 359.791 342.205 430.194 309.419 481.134C276.63 532.079 231.392 563.5 181.5 563.5Z" stroke="#BA9765"/>
<path d="M181.5 563.5C131.608 563.5 86.3698 532.079 53.5806 481.134C20.7948 430.194 0.500015 359.791 0.500018 282C0.500022 204.209 20.7948 133.806 53.5806 82.8665C86.3698 31.9213 131.608 0.49999 181.5 0.499992C231.392 0.499994 276.63 31.9213 309.419 82.8665C342.205 133.806 362.5 204.209 362.5 282C362.5 359.791 342.205 430.194 309.419 481.134C276.63 532.079 231.392 563.5 181.5 563.5Z" stroke="#BA9765"/>
</svg>
