<svg width="20" height="18" viewBox="0 0 20 18" fill="none" xmlns="http://www.w3.org/2000/svg">
<path d="M0.0157658 10.4756C0.0811409 13.5412 0.113829 15.0739 1.24496 16.2094C2.37608 17.3448 3.95033 17.3843 7.09883 17.4634C9.03931 17.5122 10.9607 17.5122 12.9012 17.4634C16.0497 17.3843 17.6239 17.3448 18.7551 16.2094C19.8862 15.0739 19.9189 13.5412 19.9842 10.4756C20.0053 9.48994 20.0053 8.51008 19.9842 7.52439C19.9189 4.45886 19.8862 2.92609 18.7551 1.79066C17.6239 0.655231 16.0497 0.615677 12.9012 0.536569C10.9607 0.487813 9.03931 0.48781 7.09882 0.536562C3.95033 0.615664 2.37608 0.655215 1.24495 1.79065C0.113823 2.92608 0.0811369 4.45885 0.0157645 7.52438C-0.00525528 8.51007 -0.00525482 9.48993 0.0157658 10.4756Z" fill="white"/>
<path d="M5 5.5L7.94202 7.23943C9.65722 8.25352 10.3428 8.25352 12.058 7.23943L15 5.5" stroke="#BA9765" stroke-width="1.5" stroke-linecap="round" stroke-linejoin="round"/>
</svg>
