<svg width="24" height="24" viewBox="0 0 24 24" fill="none" xmlns="http://www.w3.org/2000/svg">
<path d="M8.9997 21.1C6.5997 21.1 4.0997 20.5 2.0997 19.4C1.6997 19.2 1.4997 18.8 1.5997 18.3C1.6997 17.9 1.9997 17.5 2.4997 17.5C4.1997 17.3 5.4997 17 6.6997 16.4C3.7997 14.2 2.2997 10.2 2.4997 5C2.4997 4.6 2.7997 4.2 3.0997 4.1C3.4997 3.9 3.8997 4 4.1997 4.3C6.1997 6.3 8.5997 8.4 10.8997 8.2C10.8997 7.2 10.9997 5.6 11.8997 4.5C12.6997 3.5 13.8997 3 15.3997 3C17.0997 3 18.1997 4.1 18.7997 4.8L21.0997 4C21.4997 3.9 21.9997 4 22.1997 4.3C22.4997 4.6 22.4997 5.1 22.1997 5.5L20.3997 8.2C20.5997 9.4 20.7997 13 18.0997 16.6C15.8997 19.8 12.3997 21.1 8.9997 21.1ZM6.0997 18.7C9.8997 19.6 14.0997 18.9 16.6997 15.4C19.3997 11.9 18.5997 8.4 18.4997 8.2C18.3997 7.9 18.4997 7.6 18.5997 7.4L18.9997 6.8L18.7997 6.9C18.2997 7.1 17.7997 6.8 17.5997 6.4C17.5997 6.4 16.7997 5 15.4997 5C14.5997 5 13.8997 5.2 13.4997 5.8C12.7997 6.7 12.8997 8.3 12.9997 8.9C13.0997 9.4 12.7997 9.9 12.2997 10C9.3997 11 6.4997 9.1 4.4997 7.4C4.7997 10.6 5.7997 14 8.9997 15.6C9.2997 15.8 9.4997 16.1 9.4997 16.4C9.4997 16.8 9.2997 17.1 8.9997 17.3C8.0997 17.9 7.0997 18.4 6.0997 18.7Z" fill="#6F767E"/>
</svg>
