<svg width="165" height="424" viewBox="0 0 165 424" fill="none" xmlns="http://www.w3.org/2000/svg">
<mask id="path-1-inside-1_5003_126" fill="white">
<path fill-rule="evenodd" clip-rule="evenodd" d="M115.756 152.863C143.334 140.222 162.491 112.374 162.491 80.0521C162.491 35.8405 126.65 0 82.4384 0C38.2269 0 2.38634 35.8405 2.38634 80.0521C2.38634 112.374 21.542 140.222 49.1199 152.862L0.363464 401.251C-1.94971 413.036 7.07179 424 19.0811 424H145.794C157.803 424 166.825 413.036 164.512 401.251L115.756 152.863Z"/>
</mask>
<path d="M115.756 152.863L115.296 151.859L114.505 152.222L114.673 153.075L115.756 152.863ZM49.1199 152.862L50.2034 153.075L50.371 152.221L49.58 151.859L49.1199 152.862ZM0.363464 401.251L-0.720027 401.038L0.363464 401.251ZM164.512 401.251L163.428 401.464L164.512 401.251ZM161.386 80.0521C161.386 111.927 142.496 139.392 115.296 151.859L116.216 153.866C144.172 141.053 163.595 112.822 163.595 80.0521H161.386ZM82.4384 1.10417C126.04 1.10417 161.386 36.4504 161.386 80.0521H163.595C163.595 35.2307 127.26 -1.10417 82.4384 -1.10417V1.10417ZM3.49051 80.0521C3.49051 36.4504 38.8367 1.10417 82.4384 1.10417V-1.10417C37.6171 -1.10417 1.28218 35.2307 1.28218 80.0521H3.49051ZM49.58 151.859C22.38 139.391 3.49051 111.926 3.49051 80.0521H1.28218C1.28218 112.821 20.704 141.052 48.6598 153.866L49.58 151.859ZM1.44695 401.464L50.2034 153.075L48.0364 152.65L-0.720027 401.038L1.44695 401.464ZM19.0811 422.896C7.76696 422.896 -0.732323 412.566 1.44695 401.464L-0.720027 401.038C-3.16711 413.505 6.37662 425.104 19.0811 425.104V422.896ZM145.794 422.896H19.0811V425.104H145.794V422.896ZM163.428 401.464C165.607 412.566 157.108 422.896 145.794 422.896V425.104C158.498 425.104 168.042 413.505 165.595 401.038L163.428 401.464ZM114.673 153.075L163.428 401.464L165.595 401.038L116.84 152.65L114.673 153.075Z" fill="#BA9765" fill-opacity="0.35" mask="url(#path-1-inside-1_5003_126)"/>
</svg>
