<svg width="32" height="12" viewBox="0 0 32 12" fill="none" xmlns="http://www.w3.org/2000/svg">
<path d="M27.2429 2.27185L27.0073 2.39565L27.2429 2.27184C26.9005 1.62009 26.6768 0.982112 26.5678 0.357394C26.5666 0.330735 26.5634 0.304401 26.5585 0.278473C26.5616 0.27781 26.565 0.277149 26.5686 0.276499C26.6024 0.270341 26.6483 0.266185 26.7083 0.266185C26.7855 0.266185 26.8399 0.270152 26.8757 0.275681C26.8821 0.291843 26.8897 0.314913 26.8975 0.346495C26.9425 0.644794 27.0255 0.947685 27.1449 1.25485C27.4709 2.23965 28.013 3.11648 28.7675 3.88378C29.5114 4.64038 30.3783 5.18934 31.3657 5.52808C30.3783 5.86683 29.5114 6.41579 28.7675 7.17238C28.0115 7.94115 27.4688 8.81986 27.1431 9.80694C27.0392 10.1122 26.9575 10.4044 26.8986 10.6835L26.8985 10.6836C26.8892 10.7278 26.88 10.7594 26.8721 10.781C26.8363 10.7863 26.7829 10.79 26.7083 10.79C26.644 10.79 26.5941 10.7858 26.5565 10.7793C26.549 10.778 26.5421 10.7766 26.536 10.7752C26.5395 10.76 26.5437 10.7423 26.5486 10.7223C26.5692 10.6379 26.6007 10.5189 26.6436 10.3639L26.6437 10.3639L26.6452 10.3578C27.0726 8.65635 28.0271 7.26106 29.5207 6.16631L30.1767 5.68544H29.3633H0.602412C0.514296 5.62933 0.50056 5.57715 0.50056 5.52808C0.50056 5.47902 0.514296 5.42684 0.602413 5.37073H29.3633H30.1736L29.5212 4.89021C28.5374 4.16573 27.7795 3.29312 27.2429 2.27185Z" fill="white" stroke="white" stroke-width="0.532369"/>
</svg>
