<svg width="75" height="75" viewBox="0 0 75 75" fill="none" xmlns="http://www.w3.org/2000/svg">
<circle cx="37.7938" cy="37.2059" r="36.9762" stroke="white" stroke-width="0.459332"/>
<path d="M49.2429 33.2719L49.0073 33.3956L49.2429 33.2718C48.9005 32.6201 48.6768 31.9821 48.5678 31.3574C48.5666 31.3307 48.5634 31.3044 48.5585 31.2785C48.5616 31.2778 48.565 31.2771 48.5686 31.2765C48.6024 31.2703 48.6483 31.2662 48.7083 31.2662C48.7855 31.2662 48.8399 31.2702 48.8757 31.2757C48.8821 31.2918 48.8897 31.3149 48.8975 31.3465C48.9425 31.6448 49.0255 31.9477 49.1449 32.2548C49.4709 33.2396 50.013 34.1165 50.7675 34.8838C51.5114 35.6404 52.3783 36.1893 53.3657 36.5281C52.3783 36.8668 51.5114 37.4158 50.7675 38.1724C50.0115 38.9411 49.4688 39.8199 49.1431 40.8069C49.0392 41.1122 48.9575 41.4044 48.8986 41.6835L48.8985 41.6836C48.8892 41.7278 48.88 41.7594 48.8721 41.781C48.8363 41.7863 48.7829 41.79 48.7083 41.79C48.644 41.79 48.5941 41.7858 48.5565 41.7793C48.549 41.778 48.5421 41.7766 48.536 41.7752C48.5395 41.76 48.5437 41.7423 48.5486 41.7223C48.5692 41.6379 48.6007 41.5189 48.6436 41.3639L48.6437 41.3639L48.6452 41.3578C49.0726 39.6564 50.0271 38.2611 51.5207 37.1663L52.1767 36.6854H51.3633H22.6024C22.5143 36.6293 22.5006 36.5771 22.5006 36.5281C22.5006 36.479 22.5143 36.4268 22.6024 36.3707H51.3633H52.1736L51.5212 35.8902C50.5374 35.1657 49.7795 34.2931 49.2429 33.2719Z" fill="white" stroke="white" stroke-width="0.532369"/>
</svg>
