<svg width="20" height="20" viewBox="0 0 20 20" fill="none" xmlns="http://www.w3.org/2000/svg">
<path d="M3.14932 9.95197C2.3593 8.57442 1.97784 7.44957 1.74783 6.30934C1.40765 4.62298 2.18614 2.97567 3.47579 1.92456C4.02084 1.48032 4.64566 1.6321 4.96797 2.21033L5.69562 3.51576C6.27238 4.55047 6.56075 5.06783 6.50356 5.61633C6.44636 6.16482 6.05744 6.61155 5.27961 7.50501L3.14932 9.95197ZM3.14932 9.95197C4.74839 12.7402 7.25783 15.2511 10.0493 16.852M10.0493 16.852C11.4269 17.642 12.5517 18.0235 13.692 18.2535C15.3783 18.5936 17.0256 17.8152 18.0767 16.5255C18.521 15.9805 18.3692 15.3556 17.791 15.0333L16.4855 14.3057C15.4508 13.7289 14.9335 13.4405 14.385 13.4977C13.8365 13.5549 13.3898 13.9439 12.4963 14.7217L10.0493 16.852Z" stroke="white" stroke-width="1.5" stroke-linejoin="round"/>
</svg>
