<svg width="21" height="21" viewBox="0 0 21 21" fill="none" xmlns="http://www.w3.org/2000/svg">
<path d="M4.56671 0.307916C5.0944 0.416982 5.51465 0.771524 5.77574 1.23994L6.6075 2.73213C6.91387 3.28173 7.17169 3.74424 7.34006 4.1463C7.51867 4.5728 7.62475 4.99338 7.57626 5.45838C7.52777 5.92338 7.33719 6.31303 7.07443 6.69351C6.82673 7.05218 6.47903 7.45155 6.06585 7.92611L4.84319 9.33052C4.62409 9.58219 4.51454 9.70802 4.50453 9.8653C4.49452 10.0226 4.5843 10.1569 4.76388 10.4256C6.29437 12.7155 8.3571 14.7789 10.6489 16.3107C10.9175 16.4903 11.0519 16.5801 11.2092 16.5701C11.3664 16.5601 11.4923 16.4505 11.7439 16.2314L13.1484 15.0087C13.623 14.5955 14.0224 14.2478 14.381 14.0001C14.7615 13.7373 15.1511 13.5468 15.6161 13.4983C16.0812 13.4498 16.5017 13.5559 16.9282 13.7345C17.3303 13.9028 17.7928 14.1606 18.3423 14.467L19.8346 15.2988C20.303 15.5599 20.6575 15.9801 20.7666 16.5078C20.8768 17.041 20.7143 17.577 20.3552 18.0175C19.0526 19.6157 16.9655 20.6334 14.7761 20.1917C13.4303 19.9202 12.1024 19.4679 10.4964 18.5469C7.26944 16.6962 4.37615 13.8013 2.52766 10.5782C1.6066 8.97214 1.15431 7.64427 0.882824 6.29845C0.441162 4.109 1.4588 2.02194 3.05707 0.719286C3.49756 0.360272 4.0335 0.197712 4.56671 0.307916Z" fill="white"/>
</svg>
