<svg width="75" height="75" viewBox="0 0 75 75" fill="none" xmlns="http://www.w3.org/2000/svg">
<circle cx="37.2059" cy="37.2059" r="36.9762" transform="matrix(-1 0 0 1 74.4121 0)" stroke="white" stroke-width="0.459332"/>
<path d="M25.7571 33.2719L25.9927 33.3956L25.7571 33.2718C26.0995 32.6201 26.3232 31.9821 26.4322 31.3574C26.4334 31.3307 26.4366 31.3044 26.4415 31.2785C26.4384 31.2778 26.435 31.2771 26.4314 31.2765C26.3976 31.2703 26.3517 31.2662 26.2917 31.2662C26.2145 31.2662 26.1601 31.2702 26.1243 31.2757C26.1179 31.2918 26.1103 31.3149 26.1025 31.3465C26.0575 31.6448 25.9745 31.9477 25.8551 32.2548C25.5291 33.2396 24.987 34.1165 24.2325 34.8838C23.4886 35.6404 22.6217 36.1893 21.6343 36.5281C22.6217 36.8668 23.4886 37.4158 24.2325 38.1724C24.9885 38.9411 25.5312 39.8199 25.8569 40.8069C25.9608 41.1122 26.0425 41.4044 26.1014 41.6835L26.1015 41.6836C26.1108 41.7278 26.12 41.7594 26.1279 41.781C26.1637 41.7863 26.2171 41.79 26.2917 41.79C26.356 41.79 26.4059 41.7858 26.4435 41.7793C26.451 41.778 26.4579 41.7766 26.464 41.7752C26.4605 41.76 26.4563 41.7423 26.4514 41.7223C26.4308 41.6379 26.3993 41.5189 26.3564 41.3639L26.3563 41.3639L26.3548 41.3578C25.9274 39.6564 24.9729 38.2611 23.4793 37.1663L22.8233 36.6854H23.6367H52.3976C52.4857 36.6293 52.4994 36.5771 52.4994 36.5281C52.4994 36.479 52.4857 36.4268 52.3976 36.3707H23.6367H22.8264L23.4788 35.8902C24.4626 35.1657 25.2205 34.2931 25.7571 33.2719Z" fill="white" stroke="white" stroke-width="0.532369"/>
</svg>
