<svg width="32" height="12" viewBox="0 0 32 12" fill="none" xmlns="http://www.w3.org/2000/svg">
<path d="M4.75706 2.27185L4.9927 2.39565L4.75706 2.27184C5.0995 1.62009 5.32325 0.982112 5.43217 0.357394C5.43343 0.330735 5.4366 0.304401 5.44155 0.278473C5.43837 0.27781 5.435 0.277149 5.43143 0.276499C5.39758 0.270341 5.35171 0.266185 5.29166 0.266185C5.21452 0.266185 5.16006 0.270152 5.12428 0.275681C5.11789 0.291843 5.11033 0.314913 5.10252 0.346495C5.05752 0.644794 4.97451 0.947685 4.85506 1.25485C4.52912 2.23965 3.98703 3.11648 3.23254 3.88378C2.48857 4.64038 1.62172 5.18934 0.634281 5.52808C1.62172 5.86683 2.48857 6.41579 3.23254 7.17238C3.98847 7.94115 4.53118 8.81986 4.85692 9.80694C4.96079 10.1122 5.0425 10.4044 5.10143 10.6835L5.10145 10.6836C5.11076 10.7278 5.12001 10.7594 5.1279 10.781C5.16369 10.7863 5.21708 10.79 5.29166 10.79C5.356 10.79 5.40593 10.7858 5.44347 10.7793C5.45104 10.778 5.45786 10.7766 5.46397 10.7752C5.46048 10.76 5.45632 10.7423 5.45142 10.7223C5.4308 10.6379 5.39927 10.5189 5.3564 10.3639L5.35632 10.3639L5.35477 10.3578C4.92745 8.65635 3.97293 7.26106 2.47932 6.16631L1.82325 5.68544H2.63668H31.3976C31.4857 5.62933 31.4994 5.57715 31.4994 5.52808C31.4994 5.47902 31.4857 5.42684 31.3976 5.37073H2.63668H1.82638L2.47883 4.89021C3.46255 4.16573 4.22052 3.29312 4.75706 2.27185Z" fill="white" stroke="white" stroke-width="0.532369"/>
</svg>
