<svg width="24" height="24" viewBox="0 0 24 24" fill="none" xmlns="http://www.w3.org/2000/svg">
<path d="M17 4.5C17 5.32843 16.3284 6 15.5 6C14.6716 6 14 5.32843 14 4.5C14 3.67157 14.6716 3 15.5 3C16.3284 3 17 3.67157 17 4.5Z" stroke="#FFD496" stroke-width="1.5"/>
<path d="M15 21.0001L14.3359 18.3841C14.1161 17.5184 13.6615 16.7277 13.0207 16.0967L11.5 14.5991M6 11.1527C7 9.18293 8.53767 8.04157 12 8.00063M12 8.00063C12.2186 7.99804 12.5444 7.99726 12.8698 7.99732C13.3747 7.9974 13.6271 7.99744 13.8282 8.0914C14.0293 8.18536 14.2356 8.43182 14.6482 8.92475C14.7664 9.06598 14.8878 9.19253 15 9.2767M12 8.00063L10.7309 9.95883C10.0332 11.0354 9.68429 11.5737 9.67069 12.1389C9.66463 12.3907 9.70617 12.6413 9.79313 12.8776C9.98834 13.4082 10.4922 13.8052 11.5 14.5991M15 9.2767C16.1547 10.1426 17.9627 10.4913 20 8.1984M15 9.2767L11.5 14.5991" stroke="#FFD496" stroke-width="1.5" stroke-linecap="round" stroke-linejoin="round"/>
<path d="M4 17.7303L4.67822 17.8916C6.40663 18.3028 8.20324 17.5164 9 16" stroke="#FFD496" stroke-width="1.5" stroke-linecap="round" stroke-linejoin="round"/>
</svg>
