<svg width="14" height="36" viewBox="0 0 14 36" fill="none" xmlns="http://www.w3.org/2000/svg">
<path d="M5.87755 0.50111C5.98968 0.273959 6.15019 0.159097 6.35908 0.156523C6.56797 0.153948 6.73089 0.264825 6.84787 0.489153L7.19785 33.1422C8.0413 31.9828 9.06609 31.0805 10.2722 30.4356C11.0462 30.0217 11.8115 29.746 12.5682 29.6086C12.6019 29.6082 12.6355 29.6028 12.6691 29.5922C12.6993 29.5851 12.7229 29.5815 12.7397 29.5813C12.9183 29.5791 13.0093 29.7397 13.0128 30.0631C13.0149 30.2585 12.996 30.3835 12.9561 30.4379C12.9163 30.4956 12.8242 30.5423 12.6797 30.5777C12.3567 30.6289 12.0258 30.7223 11.6869 30.8579C10.6059 31.225 9.64524 31.8265 8.80506 32.6625C7.96488 33.4984 7.36537 34.4678 7.00654 35.5708C6.95755 35.7163 6.86904 35.7898 6.74102 35.7914C6.61299 35.793 6.52293 35.7216 6.47084 35.5774C6.08846 34.4836 5.46833 33.5292 4.61046 32.7142C3.75258 31.8992 2.77932 31.3215 1.69066 30.981C1.34914 30.8707 1.02475 30.7854 0.717469 30.7251C0.555388 30.6935 0.453825 30.6492 0.412782 30.5924C0.371774 30.539 0.350222 30.4146 0.348128 30.2192C0.344481 29.8789 0.431941 29.7076 0.610506 29.7054C0.657674 29.7049 0.860347 29.7512 1.21852 29.8445C3.2454 30.3216 4.91507 31.4249 6.22753 33.1542L5.87755 0.50111Z" fill="#BA9765"/>
</svg>
