<svg width="20" height="20" viewBox="0 0 20 20" fill="none" xmlns="http://www.w3.org/2000/svg">
<path d="M19 4.5C19 6.15685 17.6569 7.5 16 7.5C14.3431 7.5 13 6.15685 13 4.5C13 2.84315 14.3431 1.5 16 1.5C17.6569 1.5 19 2.84315 19 4.5Z" stroke="black" stroke-width="1.5"/>
<path d="M7 10C7 11.6569 5.65685 13 4 13C2.34315 13 1 11.6569 1 10C1 8.34315 2.34315 7 4 7C5.65685 7 7 8.34315 7 10Z" stroke="black" stroke-width="1.5"/>
<path d="M19 15.5C19 17.1569 17.6569 18.5 16 18.5C14.3431 18.5 13 17.1569 13 15.5C13 13.8431 14.3431 12.5 16 12.5C17.6569 12.5 19 13.8431 19 15.5Z" stroke="black" stroke-width="1.5"/>
<path d="M6.72852 8.74995L13.2285 5.75049M6.72852 11.2505L13.2285 14.25" stroke="black" stroke-width="1.5"/>
</svg>
